<?xml version="1.0" encoding="UTF-8"?>
<!DOCTYPE svg PUBLIC "-//W3C//DTD SVG 1.1//EN" "http://www.w3.org/Graphics/SVG/1.1/DTD/svg11.dtd">
<!-- Creator: CorelDRAW 2017 -->
<svg xmlns="http://www.w3.org/2000/svg" xml:space="preserve" width="1.05725in" height="1.05162in" version="1.1" style="shape-rendering:geometricPrecision; text-rendering:geometricPrecision; image-rendering:optimizeQuality; fill-rule:evenodd; clip-rule:evenodd"
viewBox="0 0 1057 1052"
 xmlns:xlink="http://www.w3.org/1999/xlink">
 <defs>
  <style type="text/css">
   <![CDATA[
    .fil0 {fill:#1E1E1E;fill-rule:nonzero}
   ]]>
  </style>
 </defs>
 <g id="Layer_x0020_1">
  <metadata id="CorelCorpID_0Corel-Layer"/>
  <g>
   <path class="fil0" d="M527 941l-5 -219 57 -1 5 219 -38 25 -19 -24zm57 -1c0,14 -12,26 -28,26 -16,0 -29,-11 -29,-25l57 -1zm-252 -97l233 73 -19 49 -233 -73 -6 -46 25 -3zm-19 49c-15,-5 -23,-19 -18,-33 5,-13 22,-21 36,-16l-19 49zm-287 113l281 -159 30 44 -281 159 -44 -22 13 -22zm30 44c-13,8 -31,4 -39,-8 -8,-12 -4,-28 9,-36l30 44zm1 -1022l12 1000 -57 1 -12 -1000 47 -20 11 20zm-57 1c0,-14 12,-26 28,-26 16,0 29,11 29,26l-57 1zm605 456l-594 -436 36 -40 594 436 -2 41 -35 -1zm36 -40c12,9 14,25 4,36 -10,11 -28,13 -40,4l36 -40zm404 -216l-406 257 -33 -42 406 -257 45 21 -12 21zm-33 -42c13,-8 31,-5 40,6 9,12 6,28 -7,36l-33 -42zm-12 629l0 -608 57 0 0 608 -29 26 -29 -26zm57 0c0,14 -13,26 -29,26 -16,0 -29,-12 -29,-26l57 0zm-165 -26l136 0 0 52 -136 0 -29 -26 29 -26zm0 52c-16,0 -29,-12 -29,-26 0,-14 13,-26 29,-26l0 52zm29 -344l0 318 -57 0 0 -318 11 -21 46 21zm-57 0c0,-14 13,-26 29,-26 16,0 29,12 29,26l-57 0zm-109 62l121 -82 34 41 -121 82 0 0 -34 -42zm34 41c-13,9 -31,6 -40,-5 -10,-11 -7,-28 6,-36l34 41zm-255 102l221 -144 33 42 -221 144 -45 -20 12 -21zm33 42c-13,8 -31,6 -40,-6 -9,-12 -6,-28 6,-36l33 42z"/>
  </g>
 </g>
</svg>
