<?xml version="1.0" encoding="UTF-8"?>
<!DOCTYPE svg PUBLIC "-//W3C//DTD SVG 1.1//EN" "http://www.w3.org/Graphics/SVG/1.1/DTD/svg11.dtd">
<!-- Creator: CorelDRAW 2021 (64-Bit) -->
<svg xmlns="http://www.w3.org/2000/svg" xml:space="preserve" width="2.03256in" height="1.798in" version="1.1" style="shape-rendering:geometricPrecision; text-rendering:geometricPrecision; image-rendering:optimizeQuality; fill-rule:evenodd; clip-rule:evenodd"
viewBox="0 0 470.82 416.49"
 xmlns:xlink="http://www.w3.org/1999/xlink"
 xmlns:xodm="http://www.corel.com/coreldraw/odm/2003">
 <defs>
  <style type="text/css">
   <![CDATA[
    .str0 {stroke:black;stroke-width:3.54;stroke-miterlimit:2.61313}
    .fil1 {fill:none;fill-rule:nonzero}
    .fil0 {fill:#1E1E1E;fill-rule:nonzero}
   ]]>
  </style>
 </defs>
 <g id="Layer_x0020_1">
  <metadata id="CorelCorpID_0Corel-Layer"/>
  <path class="fil0" d="M384.98 0l-330.64 0c-29.67,0 -54.34,24.67 -54.34,55.11l0 275.53c0,30.44 24.67,55.11 54.33,55.11l330.64 0c30.44,0 55.11,-24.67 55.11,-55.11l0 -275.53c0.01,-30.44 -23.93,-55.11 -55.1,-55.11zm-289.31 55.11c22.83,0 41.33,18.5 41.33,41.33 0,22.83 -17.74,41.33 -41.33,41.33 -23.59,0 -41.33,-18.5 -41.33,-41.33 0,-22.83 19.27,-41.33 41.33,-41.33zm288.45 268.3c-2.41,4.48 -7.06,7.23 -12.14,7.23l-301.36 0c-5.18,0 -9.93,-2.91 -12.28,-7.53 -2.35,-4.62 -1.91,-10.17 1.15,-14.36l60.27 -82.66c2.6,-3.59 6.73,-5.66 11.12,-5.66 4.39,0 8.54,2.1 11.13,5.66l27.95 38.32 80.33 -119.77c2.59,-4.55 6.9,-6.87 11.46,-6.87 4.56,0 8.91,2.3 11.46,6.13l110.21 165.32c2.83,4.2 3.09,9.62 0.68,14.19z"/>
  <g>
   <path class="fil1 str0" d="M413.96 28.98l-330.64 0c-29.67,0 -54.34,24.67 -54.34,55.11l0 275.53c0,30.44 24.67,55.11 54.33,55.11l330.64 0c30.44,0 55.11,-24.67 55.11,-55.11l0 -275.53c0.01,-30.44 -23.93,-55.11 -55.1,-55.11zm-289.31 55.11c22.83,0 41.33,18.5 41.33,41.33 0,22.83 -17.74,41.33 -41.33,41.33 -23.59,0 -41.33,-18.5 -41.33,-41.33 0,-22.83 19.27,-41.33 41.33,-41.33zm288.45 268.3c-2.41,4.48 -7.06,7.23 -12.14,7.23l-301.36 0c-5.18,0 -9.93,-2.91 -12.28,-7.53 -2.35,-4.62 -1.91,-10.17 1.15,-14.36l60.27 -82.66c2.6,-3.59 6.73,-5.66 11.12,-5.66 4.39,0 8.54,2.1 11.13,5.66l27.95 38.32 80.33 -119.77c2.59,-4.55 6.9,-6.87 11.46,-6.87 4.56,0 8.91,2.3 11.46,6.13l110.21 165.32c2.83,4.2 3.09,9.62 0.68,14.19z"/>
  </g>
 </g>
</svg>
