<?xml version="1.0" encoding="UTF-8"?>
<!DOCTYPE svg PUBLIC "-//W3C//DTD SVG 1.1//EN" "http://www.w3.org/Graphics/SVG/1.1/DTD/svg11.dtd">
<!-- Creator: CorelDRAW 2021 (64-Bit) -->
<svg xmlns="http://www.w3.org/2000/svg" xml:space="preserve" width="1.54715in" height="1.83224in" version="1.1" style="shape-rendering:geometricPrecision; text-rendering:geometricPrecision; image-rendering:optimizeQuality; fill-rule:evenodd; clip-rule:evenodd"
viewBox="0 0 680.25 805.6"
 xmlns:xlink="http://www.w3.org/1999/xlink"
 xmlns:xodm="http://www.corel.com/coreldraw/odm/2003">
 <defs>
  <style type="text/css">
   <![CDATA[
    .str0 {stroke:black;stroke-width:6.71;stroke-linecap:round;stroke-linejoin:round;stroke-miterlimit:2.61313}
    .fil1 {fill:none}
    .fil0 {fill:#1E1E1E}
   ]]>
  </style>
 </defs>
 <g id="Layer_x0020_1">
  <metadata id="CorelCorpID_0Corel-Layer"/>
  <path class="fil0" d="M36.86 0l521.76 0c20.28,0 36.86,16.59 36.86,36.86l0 658.34c0,20.27 -16.59,36.86 -36.86,36.86l-521.76 0c-20.28,0 -36.86,-16.59 -36.86,-36.86l0 -658.34c0,-20.28 16.59,-36.86 36.86,-36.86zm469.91 358.27l-257.02 0c-23.07,0 -42.24,19.18 -42.24,42.84l0 214.19c0,23.66 19.18,42.84 42.24,42.84l257.02 0c23.66,0 42.84,-19.18 42.84,-42.84l0 -214.19c0.01,-23.66 -18.6,-42.84 -42.83,-42.84zm-224.9 42.84c17.75,0 32.13,14.38 32.13,32.13 0,17.74 -13.79,32.13 -32.13,32.13 -18.34,0 -32.13,-14.38 -32.13,-32.13 0,-17.74 14.98,-32.13 32.13,-32.13zm224.23 208.56c-1.87,3.48 -5.49,5.62 -9.44,5.62l-234.26 0c-4.03,0 -7.72,-2.26 -9.54,-5.86 -1.83,-3.59 -1.48,-7.91 0.89,-11.17l46.85 -64.26c2.02,-2.79 5.23,-4.4 8.64,-4.4 3.41,0 6.64,1.63 8.66,4.4l21.73 29.79 62.45 -93.1c2.01,-3.54 5.36,-5.34 8.91,-5.34 3.55,0 6.93,1.79 8.91,4.77l85.68 128.51c2.2,3.26 2.4,7.48 0.53,11.03zm-443.25 -449.77l369.13 0c9.33,0 16.97,7.63 16.97,16.96l0 98.92c0,9.33 -7.63,16.96 -16.97,16.96l-369.13 0c-9.33,0 -16.96,-7.63 -16.96,-16.96l0 -98.92c0,-9.33 7.63,-16.96 16.96,-16.96zm-12.31 -85.96l199.74 0c2.56,0 4.65,2.09 4.65,4.65l0 27.12c0,2.56 -2.09,4.65 -4.65,4.65l-199.74 0c-2.56,0 -4.65,-2.09 -4.65,-4.65l0 -27.12c0,-2.56 2.09,-4.65 4.65,-4.65z"/>
  <path class="fil1 str0" d="M584.99 70.18l55.04 0c20.28,0 36.86,16.59 36.86,36.86l0 658.34c0,20.28 -16.59,36.86 -36.86,36.86l-521.76 0c-20.28,0 -36.86,-16.59 -36.86,-36.86l0 -33.31 503.58 0 0 -3.76 3.18 0c23.66,0 42.84,-19.18 42.84,-42.84l0 -214.18c0.01,-23.66 -18.6,-42.84 -42.83,-42.84l-3.19 0 0 -358.27zm2.52 609.67c-0.65,1.21 -1.51,2.25 -2.52,3.1l0 -17.12 1.99 2.99c2.2,3.26 2.4,7.48 0.53,11.03z"/>
 </g>
</svg>
