<?xml version="1.0" encoding="UTF-8"?>
<!DOCTYPE svg PUBLIC "-//W3C//DTD SVG 1.1//EN" "http://www.w3.org/Graphics/SVG/1.1/DTD/svg11.dtd">
<svg xmlns="http://www.w3.org/2000/svg" xml:space="preserve" width="1.84504in" height="1.84496in" version="1.1" style="shape-rendering:geometricPrecision; text-rendering:geometricPrecision; image-rendering:optimizeQuality; fill-rule:evenodd; clip-rule:evenodd"
viewBox="0 0 102 102"
 xmlns:xlink="http://www.w3.org/1999/xlink">
 <defs>
  <style type="text/css">
   <![CDATA[
    .str0 {stroke:#1E1E1E;stroke-width:3.40521;stroke-linecap:round;stroke-linejoin:round}
    .fil2 {fill:none}
    .fil1 {fill:#4ECCAF}
    .fil0 {fill:#6CF5D5}
   ]]>
  </style>
    <clipPath id="id0">
     <path d="M22 0l59 0c12,0 22,10 22,22l0 59c0,12 -10,22 -22,22l-59 0c-12,0 -22,-10 -22,-22l0 -59c0,-12 10,-22 22,-22z"/>
    </clipPath>
 </defs>
 <g id="Layer_x0020_1">
  <metadata id="CorelCorpID_0Corel-Layer"/>
  <g id="_1690882377712">
   <path class="fil0" d="M22 0l59 0c12,0 22,10 22,22l0 59c0,12 -10,22 -22,22l-59 0c-12,0 -22,-10 -22,-22l0 -59c0,-12 10,-22 22,-22z"/>
   <g style="clip-path:url(#id0)">
    <g>
     <polygon id="1" class="fil1" points="85,102 24,84 24,18 75,35 83,30 102,38 105,102 "/>
    </g>
   </g>
   <path class="fil2" d="M22 0l59 0c12,0 22,10 22,22l0 59c0,12 -10,22 -22,22l-59 0c-12,0 -22,-10 -22,-22l0 -59c0,-12 10,-22 22,-22z"/>
   <g>
    <polygon class="fil2 str0" points="53,64 53,78 39,73 22,84 22,18 57,47 81,30 81,70 73,70 73,49 66,54 "/>
   </g>
  </g>
 </g>
</svg>
