<?xml version="1.0" encoding="UTF-8"?>
<!DOCTYPE svg PUBLIC "-//W3C//DTD SVG 1.1//EN" "http://www.w3.org/Graphics/SVG/1.1/DTD/svg11.dtd">
<!-- Creator: CorelDRAW 2021 (64-Bit) -->
<svg xmlns="http://www.w3.org/2000/svg" xml:space="preserve" width="1.36995in" height="1.72741in" version="1.1" style="shape-rendering:geometricPrecision; text-rendering:geometricPrecision; image-rendering:optimizeQuality; fill-rule:evenodd; clip-rule:evenodd"
viewBox="0 0 1033.12 1302.69"
 xmlns:xlink="http://www.w3.org/1999/xlink"
 xmlns:xodm="http://www.corel.com/coreldraw/odm/2003">
 <defs>
  <style type="text/css">
   <![CDATA[
    .str0 {stroke:black;stroke-width:11.51;stroke-miterlimit:2.61313}
    .fil1 {fill:none;fill-rule:nonzero}
    .fil0 {fill:#1E1E1E;fill-rule:nonzero}
   ]]>
  </style>
 </defs>
 <g id="Layer_x0020_1">
  <metadata id="CorelCorpID_0Corel-Layer"/>
  <g id="_2081351892464">
   <path class="fil0" d="M65 0c15.89,0 31.25,5.83 43.16,16.42l768.01 682.6c13.17,11.77 20.74,28.59 20.74,46.25 0,34.19 -27.75,61.94 -61.94,61.94l-331.01 0 159.2 318.68c22.14,44.29 4.2,98.1 -40.08,120.24 -44.29,22.14 -98.1,4.2 -120.24,-40.08l-163.12 -325.97 -231.57 264.87c-11.72,13.45 -28.65,21.02 -46.44,21.02 -34.07,0 -61.69,-27.75 -61.69,-64.18l0 -1036.82c0,-35.87 29.09,-64.97 64.97,-64.97l0.03 0z"/>
   <path class="fil1 str0" d="M195.45 41.32c15.89,0 31.25,5.83 43.16,16.42l768.01 682.6c13.17,11.77 20.74,28.59 20.74,46.25 0,34.19 -27.75,61.94 -61.94,61.94l-331.01 0 159.2 318.68c22.14,44.29 4.2,98.1 -40.08,120.24 -44.29,22.14 -98.1,4.2 -120.24,-40.08l-163.12 -325.97 -231.57 264.87c-11.72,13.45 -28.65,21.02 -46.44,21.02 -34.07,0 -61.69,-27.75 -61.69,-64.18l0 -1036.82c0,-35.87 29.09,-64.97 64.97,-64.97l0.03 0z"/>
  </g>
 </g>
</svg>
